<?xml version="1.0" standalone="no"?>
<!DOCTYPE svg PUBLIC "-//W3C//DTD SVG 20010904//EN"
 "http://www.w3.org/TR/2001/REC-SVG-20010904/DTD/svg10.dtd">
<svg version="1.0" xmlns="http://www.w3.org/2000/svg"
 width="371.000000pt" height="75.000000pt" viewBox="0 0 371.000000 75.000000"
 preserveAspectRatio="xMidYMid meet">

<g transform="translate(0.000000,75.000000) scale(0.100000,-0.100000)"
fill="#000000" stroke="none">
<path d="M2993 723 c-7 -2 -13 -16 -13 -29 0 -21 -5 -24 -35 -24 -19 0 -35 -4
-35 -10 0 -6 55 -10 145 -10 90 0 145 -4 145 -10 0 -6 -48 -10 -125 -10 -77 0
-125 -4 -125 -10 0 -6 43 -10 110 -10 67 0 110 -4 110 -10 0 -6 -48 -10 -124
-10 -160 0 -179 -18 -24 -22 129 -3 151 -21 33 -26 l-75 -3 0 -48 c0 -54 17
-77 67 -87 40 -8 100 12 113 37 9 15 22 19 71 19 53 0 64 -3 80 -25 11 -13 35
-27 54 -31 42 -7 102 11 115 36 6 10 22 20 37 22 30 3 47 38 19 38 -12 0 -16
11 -16 44 0 43 -1 45 -63 85 -41 26 -75 41 -95 41 -24 0 -32 4 -32 18 0 38
-19 42 -175 41 -82 0 -156 -3 -162 -6z m429 -114 c26 -17 48 -33 48 -35 0 -2
-31 -4 -70 -4 l-70 0 0 35 c0 29 4 35 22 35 12 0 43 -14 70 -31z m-306 -134
c15 -37 -43 -59 -81 -31 -16 12 -17 16 -6 30 17 21 80 21 87 1z m320 0 c15
-37 -43 -59 -81 -31 -16 12 -17 16 -6 30 17 21 80 21 87 1z"/>
<path d="M173 483 c-18 -2 -33 -6 -33 -8 0 -1 17 -38 39 -81 64 -131 81 -176
89 -239 7 -58 8 -60 38 -63 l31 -3 11 73 c7 45 30 118 62 192 50 118 52 135
14 136 -6 0 -28 -44 -49 -97 -21 -54 -41 -102 -45 -106 -7 -8 -24 59 -46 171
-7 34 -17 37 -111 25z"/>
<path d="M1513 482 c-12 -8 -6 -159 13 -339 l5 -53 99 0 c117 0 130 4 130 39
l0 27 -75 -9 c-42 -5 -78 -7 -80 -5 -3 3 -2 33 2 68 l6 63 69 -6 c67 -6 68 -5
68 19 0 23 -3 24 -65 24 l-66 0 6 53 c9 76 9 75 74 83 51 5 61 10 61 25 0 18
-9 19 -117 19 -65 0 -124 -4 -130 -8z"/>
<path d="M3228 403 c-63 -68 -65 -125 -8 -209 22 -33 40 -65 40 -72 0 -7 -10
-23 -23 -36 -19 -19 -21 -27 -12 -39 10 -14 14 -14 43 0 73 35 90 97 47 168
-34 55 -32 90 5 125 l31 29 -45 30 c-25 17 -46 31 -48 31 -3 0 -16 -12 -30
-27z"/>
<path d="M3478 403 c-63 -68 -65 -123 -8 -207 46 -68 49 -87 16 -114 -19 -14
-22 -22 -13 -31 19 -19 44 -12 81 23 44 41 47 82 11 141 -33 54 -32 86 6 123
l31 30 -45 31 c-25 17 -47 31 -49 31 -3 0 -16 -12 -30 -27z"/>
<path d="M2919 379 c-43 -46 -69 -117 -69 -183 0 -63 9 -83 43 -98 32 -13 190
-19 201 -7 4 3 2 19 -4 34 -8 20 -15 25 -28 20 -9 -3 -47 -9 -83 -12 -71 -6
-85 1 -74 37 5 17 15 20 70 20 81 0 111 14 125 56 20 58 -17 112 -108 158
l-34 17 -39 -42z m115 -81 c13 -50 7 -65 -25 -72 -46 -9 -79 -7 -79 4 0 13 75
90 87 90 6 0 13 -10 17 -22z"/>
<path d="M1117 399 c-10 -6 -31 -29 -48 -51 l-29 -41 6 48 7 47 -54 -7 c-30
-4 -58 -11 -63 -15 -5 -5 -3 -67 5 -147 l14 -138 29 0 c29 0 30 2 42 72 12 70
48 153 70 160 15 5 24 -53 24 -154 l0 -83 33 0 32 0 17 81 c19 91 47 152 71
157 15 3 17 -10 17 -117 l0 -121 57 0 56 0 -6 103 c-7 112 -30 205 -53 214
-27 10 -76 -20 -104 -63 l-27 -43 -13 42 c-19 67 -40 81 -83 56z"/>
<path d="M2374 391 c-17 -10 -41 -35 -53 -55 -13 -20 -24 -36 -25 -36 -1 0 1
23 4 51 l7 50 -56 -7 c-31 -3 -60 -9 -64 -11 -8 -5 -2 -224 9 -330 5 -50 7
-53 33 -53 26 0 29 4 34 45 2 26 6 48 8 50 2 2 25 -2 51 -7 61 -14 121 2 146
40 38 59 6 273 -43 280 -11 1 -34 -6 -51 -17z m11 -117 c4 -31 4 -78 0 -105
-7 -48 -8 -49 -42 -49 -60 0 -72 12 -62 64 10 56 31 107 53 129 31 30 43 21
51 -39z"/>
<path d="M2752 383 c-15 -16 -35 -39 -44 -53 -16 -25 -16 -24 -11 23 l6 48
-54 -7 c-30 -3 -58 -10 -62 -14 -5 -4 -4 -61 3 -126 15 -166 15 -164 50 -164
27 0 30 3 30 30 0 52 21 127 41 149 13 13 32 21 54 21 37 0 38 1 49 83 4 32 2
37 -15 37 -11 0 -33 -12 -47 -27z"/>
<path d="M546 393 l-39 -4 7 -87 c9 -106 22 -169 43 -201 12 -19 21 -22 50
-18 50 8 79 31 105 80 l23 42 5 -55 c5 -53 6 -55 36 -58 l30 -3 18 151 c10 83
16 154 13 157 -3 2 -29 1 -59 -4 l-53 -8 -6 -85 c-3 -47 -12 -97 -19 -112 -14
-30 -58 -64 -68 -53 -4 4 -7 65 -6 136 0 145 9 131 -80 122z"/>
<path d="M1890 393 c-19 -3 -39 -8 -44 -13 -4 -4 9 -37 29 -72 21 -34 38 -68
38 -74 0 -5 -18 -38 -41 -72 -23 -33 -42 -63 -42 -65 0 -3 12 -7 26 -10 23 -4
28 2 52 50 l26 54 28 -54 27 -54 58 5 c32 2 59 6 61 7 2 2 -17 35 -42 74 -25
39 -46 74 -46 78 0 4 19 35 41 70 23 35 40 65 38 67 -2 2 -13 6 -25 10 -17 5
-24 -2 -44 -44 -13 -27 -26 -50 -29 -50 -4 0 -14 23 -24 50 -13 35 -23 50 -35
48 -9 0 -33 -3 -52 -5z"/>
</g>
</svg>
